<?xml version="1.0" encoding="UTF-8"?>
<svg id="Calque_1" data-name="Calque 1" xmlns="http://www.w3.org/2000/svg" viewBox="0 0 410.81 174.76">
  <defs>
    <style>
      .cls-1 {
        fill: #000;
        stroke-width: 0px;
      }
    </style>
  </defs>
  <g>
    <path class="cls-1" d="M43.63,84.82s0,0,0,0c2.95-1.15,4.45-4.48,3.29-7.46-1.16-2.99-4.49-4.49-7.49-3.34.84,6.68-1.02,13.43-6.81,15.16-5.38,1.61-14.27-4.04-18.85-15.96-4.57-11.9-1.74-22.05,3.33-24.46,5.47-2.6,11.36,1.2,15.21,6.71,3-1.15,4.48-4.49,3.35-7.48-1.15-2.99-4.5-4.47-7.49-3.33,2.98-1.14,4.48-4.49,3.33-7.49-1.14-2.98-4.49-4.47-7.49-3.33l1.68,4.37c-.04-.1-.1-.25-.1-.25-4.21-1.39-8.54-1.45-12.6.11C.82,42.75-3.54,59.98,3.1,77.32c6.65,17.33,21.42,27.24,33.65,22.55,4.04-1.55,7.22-4.49,9.42-8.35h0s1.58,4.12,1.58,4.12c3-1.15,4.48-4.5,3.36-7.49-1.16-2.98-4.5-4.47-7.47-3.34ZM43.61,84.88s0-.02.01-.03v.04s0,0-.01,0Z"/>
    <path class="cls-1" d="M360.56,44.18c.89-3.07-.88-6.29-3.94-7.19h0c3.08.89,6.29-.87,7.17-3.93.9-3.08-.86-6.3-3.94-7.2l-1.24,4.24c-2.51-3.66-5.92-6.33-10.09-7.54-12.56-3.66-26.47,7.43-31.65,25.26-5.21,17.81.55,34.64,13.12,38.3,4.16,1.21,8.49.8,12.56-.94l-1.23,4.24c3.06.9,6.28-.87,7.17-3.93.91-3.07-.86-6.29-3.93-7.2h0c3.08.89,6.29-.86,7.19-3.92.89-3.08-.87-6.29-3.95-7.19-3.37,5.82-8.93,10.08-14.6,7.95-5.25-1.97-8.9-11.85-5.33-24.1,3.56-12.25,11.95-18.62,17.43-17.46,5.93,1.25,8.34,7.82,8.07,14.54,3.06.91,6.29-.85,7.18-3.93Z"/>
    <path class="cls-1" d="M309.48,13.34c-3.14-.59-6.18,1.5-6.75,4.63h0c.58-3.14-1.51-6.16-4.63-6.75-3.15-.59-6.18,1.5-6.75,4.64l5.76,1.07-9.98,53.69-5.74-1.07c-.59,3.14,1.48,6.16,4.63,6.74,3.14.59,6.16-1.48,6.74-4.63-.58,3.15,1.51,6.16,4.65,6.74,3.15.59,6.18-1.48,6.74-4.63l-5.74-1.07h-.01s9.98-53.65,9.98-53.65l.04-.03,5.71,1.06c.59-3.15-1.48-6.17-4.63-6.75Z"/>
    <path class="cls-1" d="M101.35,74.34l-13.95-52.79h0l5.67-1.5c-.82-3.1-3.99-4.94-7.08-4.13-3.09.82-4.94,3.99-4.13,7.08h0s0,0,0,0h-.01s.01,0,.01,0c-.81-3.09-3.98-4.94-7.06-4.13-3.1.82-4.95,4-4.13,7.08l5.67-1.5h0s5.87,22.26,5.87,22.26l-17.41,4.6-5.87-22.26,5.66-1.49c-.81-3.09-3.99-4.94-7.09-4.13-3.08.82-4.93,3.99-4.12,7.09-.81-3.09-3.98-4.94-7.08-4.13-3.07.82-4.93,4-4.12,7.08l5.67-1.5h0s13.95,52.79,13.95,52.79l-5.67,1.5c.82,3.09,3.99,4.93,7.08,4.11,3.1-.81,4.95-3.98,4.13-7.07.82,3.09,3.99,4.93,7.08,4.11,3.1-.82,4.94-3.98,4.12-7.07l-5.66,1.5-5.87-22.24,17.41-4.6,5.87,22.24-5.65,1.49c.8,3.09,3.99,4.93,7.06,4.11,3.1-.82,4.94-3.97,4.12-7.07.82,3.09,3.99,4.93,7.08,4.11,3.11-.81,4.94-3.99,4.13-7.07l-5.66,1.49Z"/>
    <path class="cls-1" d="M191.05,57.54l.15,2.99-16.9.88,5.57-19.33c.49.11.97.25,1.5.22,3.19-.16,5.65-2.89,5.48-6.08l-5.37.28,7.19-24.92c3.19-.16,5.65-2.88,5.48-6.07-.17-3.2-2.89-5.65-6.09-5.49l.15,2.99-29.28,1.51c-3.19.17-5.65,2.9-5.48,6.09.17,3.2,2.87,5.65,6.07,5.48l-.15-3.01v.02s17.19-.89,17.19-.89l-5.58,19.39c-.57-.15-1.15-.29-1.76-.26-3.2.16-5.66,2.88-5.48,6.08l5.65-.29-7.18,24.91-.28.02c-3.2.17-5.66,2.89-5.49,6.09.17,3.19,2.89,5.65,6.09,5.48l-.15-2.98,29.28-1.52c3.2-.16,5.66-2.89,5.49-6.08-.17-3.19-2.89-5.65-6.09-5.49Z"/>
    <path class="cls-1" d="M145.39,60.91l.44,2.96-17.62,2.59-2.94-19.99,8.91-1.31,1.06,7.21c3.17-.47,5.35-3.41,4.89-6.57-.46-3.17-3.4-5.36-6.57-4.9h0c3.16-.46,5.35-3.4,4.88-6.56-.46-3.17-3.41-5.36-6.56-4.89l1.06,7.22-8.92,1.31-2.93-20.01,17.62-2.58.43,2.96c3.18-.47,5.37-3.4,4.9-6.57-.46-3.17-3.41-5.36-6.57-4.89l-17.63,2.59v.02c-3.12.5-5.27,3.41-4.82,6.54-.45-3.16-3.4-5.36-6.56-4.89-3.16.46-5.35,3.41-4.89,6.57l5.79-.85,7.93,54.02-5.79.85c.46,3.16,3.41,5.35,6.56,4.89,3.17-.47,5.37-3.4,4.89-6.56.48,3.14,3.38,5.3,6.5,4.88v.04s17.63-2.59,17.63-2.59c3.15-.47,5.35-3.41,4.88-6.56-.45-3.17-3.38-5.37-6.56-4.9Z"/>
    <path class="cls-1" d="M272.18,7.38c-3.18-.27-6,2.08-6.29,5.26h0c.28-3.17-2.08-5.98-5.26-6.25-3.19-.27-6,2.09-6.27,5.27l5.85.5h0s-3.27,37.83-3.27,37.83l-14.17-45.15c-3.15-.23-5.93,2.11-6.19,5.28.26-3.18-2.1-5.99-5.29-6.27-3.19-.27-6,2.08-6.27,5.28l5.84.5-4.7,54.4-5.84-.5c-.27,3.18,2.08,5.98,5.28,6.27,3.18.27,6-2.09,6.27-5.27-.27,3.18,2.08,5.99,5.27,6.26,3.18.27,5.98-2.08,6.25-5.27l-5.83-.5,3.25-37.72,14.19,45.03c3.15.24,5.92-2.11,6.19-5.27-.27,3.18,2.1,5.98,5.3,6.26,3.18.28,5.98-2.08,6.25-5.27l-5.83-.5,4.7-54.4h0s5.84.51,5.84.51c.27-3.19-2.1-6-5.28-6.27ZM265.85,12.64h.02-.01s0,0,0,0Z"/>
    <path class="cls-1" d="M406.73,54.91l4.08-10.85c-2.51-.96-5.2.05-6.68,2.16-1.87-3.65-4.54-6.38-8.04-7.7-5.74-2.16-12.28-.43-18.36,4.88-5.13,4.47-9.54,11.18-12.43,18.89-2.84,7.49-3.91,15.2-3.13,21.82-.03,0-.04-.03-.06-.04l-4.08,10.85c2.54.95,5.23-.05,6.7-2.16,1.87,3.65,4.53,6.39,8.04,7.71,5.76,2.16,12.26.43,18.35-4.89,5.12-4.47,9.55-11.17,12.45-18.89,2.81-7.49,3.9-15.19,3.14-21.8,0,0,0,0,.01,0ZM392.86,72.67c-4.58,12.17-12.7,18.34-16.04,17.08-3.36-1.26-5.39-11.25-.81-23.43,4.58-12.17,12.7-18.36,16.04-17.1,3.36,1.27,5.39,11.25.81,23.44Z"/>
  </g>
  <path class="cls-1" d="M190.18,113.58v-1.4h30.46v1.4h-30.46Z"/>
  <g>
    <path class="cls-1" d="M37.93,153.25h4.26l9,21.15h-4.83l-1.92-4.71h-8.88l-1.92,4.71h-4.71l9-21.15ZM42.79,165.61l-2.79-6.81-2.79,6.81h5.58Z"/>
    <path class="cls-1" d="M56.62,157.66h-6.39v-4.26h17.4v4.26h-6.39v16.74h-4.62v-16.74Z"/>
    <path class="cls-1" d="M71.17,153.4h15.84v4.11h-11.25v4.26h9.9v4.11h-9.9v4.41h11.4v4.11h-15.99v-21Z"/>
    <path class="cls-1" d="M91.27,153.4h4.62v16.8h10.47v4.2h-15.09v-21Z"/>
    <path class="cls-1" d="M110.05,153.4h4.62v21h-4.62v-21Z"/>
    <path class="cls-1" d="M119.92,153.4h15.84v4.11h-11.25v4.26h9.9v4.11h-9.9v4.41h11.4v4.11h-15.99v-21Z"/>
    <path class="cls-1" d="M140.02,153.4h9.6c2.67,0,4.74.75,6.12,2.13,1.17,1.17,1.8,2.82,1.8,4.8v.06c0,3.39-1.83,5.52-4.5,6.51l5.13,7.5h-5.4l-4.5-6.72h-3.63v6.72h-4.62v-21ZM149.32,163.6c2.25,0,3.54-1.2,3.54-2.97v-.06c0-1.98-1.38-3-3.63-3h-4.59v6.03h4.68Z"/>
    <path class="cls-1" d="M170.71,153.4h8.19c6.6,0,11.16,4.53,11.16,10.44v.06c0,5.91-4.56,10.5-11.16,10.5h-8.19v-21ZM178.9,170.23c3.78,0,6.33-2.55,6.33-6.27v-.06c0-3.72-2.55-6.33-6.33-6.33h-3.57v12.66h3.57Z"/>
    <path class="cls-1" d="M194.17,153.4h15.84v4.11h-11.25v4.26h9.9v4.11h-9.9v4.41h11.4v4.11h-15.99v-21Z"/>
    <path class="cls-1" d="M222.34,163.96v-.06c0-5.97,4.5-10.86,10.95-10.86,3.96,0,6.33,1.32,8.28,3.24l-2.94,3.39c-1.62-1.47-3.27-2.37-5.37-2.37-3.54,0-6.09,2.94-6.09,6.54v.06c0,3.6,2.49,6.6,6.09,6.6,2.4,0,3.87-.96,5.52-2.46l2.94,2.97c-2.16,2.31-4.56,3.75-8.61,3.75-6.18,0-10.77-4.77-10.77-10.8Z"/>
    <path class="cls-1" d="M245.41,153.4h9.6c2.67,0,4.74.75,6.12,2.13,1.17,1.17,1.8,2.82,1.8,4.8v.06c0,3.39-1.83,5.52-4.5,6.51l5.13,7.5h-5.4l-4.5-6.72h-3.63v6.72h-4.62v-21ZM254.71,163.6c2.25,0,3.54-1.2,3.54-2.97v-.06c0-1.98-1.38-3-3.63-3h-4.59v6.03h4.68Z"/>
    <path class="cls-1" d="M267.1,153.4h15.84v4.11h-11.25v4.26h9.9v4.11h-9.9v4.41h11.4v4.11h-15.99v-21ZM276.85,147.04l3.93,1.71-4.08,3h-3.48l3.63-4.71Z"/>
    <path class="cls-1" d="M294.4,153.25h4.26l9,21.15h-4.83l-1.92-4.71h-8.88l-1.92,4.71h-4.71l9-21.15ZM299.26,165.61l-2.79-6.81-2.79,6.81h5.58Z"/>
    <path class="cls-1" d="M313.09,157.66h-6.39v-4.26h17.4v4.26h-6.39v16.74h-4.62v-16.74Z"/>
    <path class="cls-1" d="M327.85,153.4h4.62v21h-4.62v-21Z"/>
    <path class="cls-1" d="M336.79,163.96v-.06c0-5.97,4.71-10.86,11.19-10.86s11.13,4.83,11.13,10.8v.06c0,5.97-4.71,10.86-11.19,10.86s-11.13-4.83-11.13-10.8ZM354.28,163.96v-.06c0-3.6-2.64-6.6-6.36-6.6s-6.3,2.94-6.3,6.54v.06c0,3.6,2.64,6.6,6.36,6.6s6.3-2.94,6.3-6.54Z"/>
    <path class="cls-1" d="M363.22,153.4h4.26l9.84,12.93v-12.93h4.56v21h-3.93l-10.17-13.35v13.35h-4.56v-21Z"/>
  </g>
</svg>